<mxfile host="app.diagrams.net" modified="2024-07-02T20:38:03.726Z" agent="Mozilla/5.0 (Windows NT 10.0; Win64; x64) AppleWebKit/537.36 (KHTML, like Gecko) Chrome/126.0.0.0 Safari/537.36" version="24.6.4" etag="tsU5UJafnt_tXKcwb6Xy" type="github">
  <diagram name="Page-1" id="kcWzKKRthiMYiG-GRu7J">
    <mxGraphModel>
      <root>
        <mxCell id="0" />
        <mxCell id="1" parent="0" />
      </root>
    </mxGraphModel>
  </diagram>
</mxfile>
